# xmcd
#
# Track frame offsets:
#	150
#	30807
#	54510
#	79238
#	96800
#	124071
#	147870
#	166129
#	189288
#	206259
#	219732
#
# Disc length: 3178 seconds
#
# Revision: 1
# Processed by: cddbd v1.5.2PL0 Copyright (c) Steve Scherf et al.
# Submitted via: audiograbber 1.83.01
#
DISCID=8a0c680b
DTITLE=Diabel Cissokho and Ramon Goose - Mansana Blues
DYEAR=2010
DGENRE=Blues
TTITLE0=Mansana blues
TTITLE1=Yeurmande
TTITLE2=Dioungo
TTITLE3=Lampfall
TTITLE4=Totoumo
TTITLE5=Talibe
TTITLE6=Abaraka
TTITLE7=Wherever I go
TTITLE8=Kouma
TTITLE9=Papa
TTITLE10=Deep blue sea
EXTD=
EXTT0=
EXTT1=
EXTT2=
EXTT3=
EXTT4=
EXTT5=
EXTT6=
EXTT7=
EXTT8=
EXTT9=
EXTT10=
PLAYORDER=
